<?xml version="1.0" encoding="utf-8"?>
<!-- Generator: Adobe Illustrator 25.0.0, SVG Export Plug-In . SVG Version: 6.00 Build 0)  -->
<svg version="1.1" id="Layer_1" xmlns="http://www.w3.org/2000/svg" xmlns:xlink="http://www.w3.org/1999/xlink" x="0px" y="0px"
	 viewBox="0 0 1025 800" style="enable-background:new 0 0 1025 800;" xml:space="preserve">
<style type="text/css">
	.st0{fill:none;stroke:#73A883;stroke-miterlimit:10;}
	.st1{fill:#73A883;}
	.st2{font-family:'IndieFlower';}
	.st3{font-size:33px;}
	.st4{font-size:52px;}
</style>
<path class="st0" d="M460.73,302.2H319.77c-1.94,0-3.52-1.57-3.52-3.52v-1.97c0-1.94,1.57-3.52,3.52-3.52h140.97
	c1.94,0,3.52,1.57,3.52,3.52v1.97C464.25,300.63,462.68,302.2,460.73,302.2z"/>
<path class="st0" d="M460.73,340.2H319.77c-1.94,0-3.52-1.57-3.52-3.52v-1.97c0-1.94,1.57-3.52,3.52-3.52h140.97
	c1.94,0,3.52,1.57,3.52,3.52v1.97C464.25,338.63,462.68,340.2,460.73,340.2z"/>
<path class="st1" d="M392.73,302.2h-72.97c-1.94,0-3.52-1.57-3.52-3.52v-1.97c0-1.94,1.57-3.52,3.52-3.52h72.97
	c1.94,0,3.52,1.57,3.52,3.52v1.97C396.25,300.63,394.68,302.2,392.73,302.2"/>
<path class="st1" d="M352.73,340.2h-32.97c-1.94,0-3.52-1.57-3.52-3.52v-1.97c0-1.94,1.57-3.52,3.52-3.52h32.97
	c1.94,0,3.52,1.57,3.52,3.52v1.97C356.25,338.63,354.68,340.2,352.73,340.2"/>
<path class="st0" d="M460.73,378.2H319.77c-1.94,0-3.52-1.57-3.52-3.52v-1.97c0-1.94,1.57-3.52,3.52-3.52h140.97
	c1.94,0,3.52,1.57,3.52,3.52v1.97C464.25,376.63,462.68,378.2,460.73,378.2z"/>
<path class="st0" d="M460.73,417.2H319.77c-1.94,0-3.52-1.57-3.52-3.52v-1.97c0-1.94,1.57-3.52,3.52-3.52h140.97
	c1.94,0,3.52,1.57,3.52,3.52v1.97C464.25,415.63,462.68,417.2,460.73,417.2z"/>
<path class="st1" d="M404.73,378.2h-84.97c-1.94,0-3.52-1.57-3.52-3.52v-1.97c0-1.94,1.57-3.52,3.52-3.52h84.97
	c1.94,0,3.52,1.57,3.52,3.52v1.97C408.25,376.63,406.68,378.2,404.73,378.2"/>
<path class="st1" d="M324.73,416.2h-4.97c-1.94,0-3.52-1.57-3.52-3.52v-1.97c0-1.94,1.57-3.52,3.52-3.52h4.97
	c1.94,0,3.52,1.57,3.52,3.52v1.97C328.25,414.63,326.68,416.2,324.73,416.2"/>
<path class="st0" d="M460.73,451.2H319.77c-1.94,0-3.52-1.57-3.52-3.52v-1.97c0-1.94,1.57-3.52,3.52-3.52h140.97
	c1.94,0,3.52,1.57,3.52,3.52v1.97C464.25,449.63,462.68,451.2,460.73,451.2z"/>
<path class="st1" d="M384.73,451.2h-64.97c-1.94,0-3.52-1.57-3.52-3.52v-1.97c0-1.94,1.57-3.52,3.52-3.52h64.97
	c1.94,0,3.52,1.57,3.52,3.52v1.97C388.25,449.63,386.68,451.2,384.73,451.2"/>
<text transform="matrix(1 0 0 1 28.7636 306.6682)" class="st2 st3">Adobe Illusrator</text>
<text transform="matrix(1 0 0 1 28.7633 342.1682)" class="st2 st3">Adobe Photoshop</text>
<text transform="matrix(1 0 0 1 28.7636 377.6682)" class="st2 st3">photography</text>
<text transform="matrix(1 0 0 1 28.7633 413.1682)" class="st2 st3">JavaScript</text>
<text transform="matrix(1 0 0 1 28.7636 448.6682)" class="st2 st3">HTML &amp; CSS</text>
<path class="st0" d="M933.1,307.93H792.13c-1.94,0-3.52-1.57-3.52-3.52v-1.97c0-1.94,1.57-3.52,3.52-3.52H933.1
	c1.94,0,3.52,1.57,3.52,3.52v1.97C936.61,306.36,935.04,307.93,933.1,307.93z"/>
<path class="st0" d="M933.1,345.93H792.13c-1.94,0-3.52-1.57-3.52-3.52v-1.97c0-1.94,1.57-3.52,3.52-3.52H933.1
	c1.94,0,3.52,1.57,3.52,3.52v1.97C936.61,344.36,935.04,345.93,933.1,345.93z"/>
<path class="st1" d="M919.83,307.93H794.65c-3.33,0-6.03-1.57-6.03-3.52v-1.97c0-1.94,2.7-3.52,6.03-3.52h125.18
	c3.33,0,6.03,1.57,6.03,3.52v1.97C925.86,306.36,923.16,307.93,919.83,307.93"/>
<path class="st1" d="M890.08,345.93h-91.69c-5.4,0-9.78-1.57-9.78-3.52v-1.97c0-1.94,4.38-3.52,9.78-3.52h91.69
	c5.4,0,9.78,1.57,9.78,3.52v1.97C899.86,344.36,895.48,345.93,890.08,345.93"/>
<path class="st0" d="M933.1,383.93H792.13c-1.94,0-3.52-1.57-3.52-3.52v-1.97c0-1.94,1.57-3.52,3.52-3.52H933.1
	c1.94,0,3.52,1.57,3.52,3.52v1.97C936.61,382.36,935.04,383.93,933.1,383.93z"/>
<path class="st0" d="M933.1,422.93H792.13c-1.94,0-3.52-1.57-3.52-3.52v-1.97c0-1.94,1.57-3.52,3.52-3.52H933.1
	c1.94,0,3.52,1.57,3.52,3.52v1.97C936.61,421.36,935.04,422.93,933.1,422.93z"/>
<path class="st1" d="M895.61,383.93H792.87c-2.35,0-4.25-1.57-4.25-3.52v-1.97c0-1.94,1.9-3.52,4.25-3.52h102.74
	c2.35,0,4.25,1.57,4.25,3.52v1.97C899.86,382.36,897.96,383.93,895.61,383.93"/>
<path class="st1" d="M803.94,422.93h-8.97c-3.51,0-6.35-1.57-6.35-3.52v-1.97c0-1.94,2.84-3.52,6.35-3.52h8.97
	c3.51,0,6.35,1.57,6.35,3.52v1.97C810.3,421.36,807.45,422.93,803.94,422.93"/>
<path class="st0" d="M933.1,456.93H792.13c-1.94,0-3.52-1.57-3.52-3.52v-1.97c0-1.94,1.57-3.52,3.52-3.52H933.1
	c1.94,0,3.52,1.57,3.52,3.52v1.97C936.61,455.36,935.04,456.93,933.1,456.93z"/>
<path class="st1" d="M798.93,456.93h-9.78c-0.29,0-0.53-1.57-0.53-3.52v-1.97c0-1.94,0.24-3.52,0.53-3.52h9.78
	c0.29,0,0.53,1.57,0.53,3.52v1.97C799.45,455.36,799.22,456.93,798.93,456.93"/>
<g>
	<text transform="matrix(1 0 0 1 635.1339 312.9348)" class="st2 st3">Arabic</text>
</g>
<g>
	<text transform="matrix(1 0 0 1 635.1336 348.4348)" class="st2 st3">Dutch</text>
</g>
<g>
	<text transform="matrix(1 0 0 1 635.1339 383.9348)" class="st2 st3">English</text>
</g>
<g>
	<text transform="matrix(1 0 0 1 635.6121 419.4348)" class="st2 st3">Frensh</text>
</g>
<g>
	<text transform="matrix(1 0 0 1 635.1339 454.9348)" class="st2 st3">German</text>
</g>
<text transform="matrix(1 0 0 1 29.2792 229.9851)" class="st1 st2 st4">Skills</text>
<g>
	<text transform="matrix(1 0 0 1 636.1973 229.9851)" class="st1 st2 st4">Languages</text>
</g>
</svg>
